<svg xmlns="http://www.w3.org/2000/svg" viewBox="0 0 512 512" width="512" height="512" role="img" aria-label="On Focus">
  <defs><linearGradient id="g" x1="0" y1="0" x2="1" y2="1"><stop offset="0" stop-color="#6366F1"/><stop offset="1" stop-color="#3B82F6"/></linearGradient></defs>
  <rect width="512" height="512" rx="112" fill="url(#g)"/>
  <g fill="none" stroke="#fff" stroke-width="26" stroke-linecap="round" stroke-linejoin="round">
    <path d="M112 176V128a16 16 0 0 1 16-16h48"/>
    <path d="M336 112h48a16 16 0 0 1 16 16v48"/>
    <path d="M400 336v48a16 16 0 0 1-16 16h-48"/>
    <path d="M176 400h-48a16 16 0 0 1-16-16v-48"/>
  </g>
  <circle cx="256" cy="256" r="118" fill="none" stroke="#fff" stroke-opacity=".5" stroke-width="18"/>
  <circle cx="256" cy="256" r="78" fill="none" stroke="#fff" stroke-width="18"/>
  <circle cx="256" cy="256" r="32" fill="#FDE047"/>
</svg>
